<svg id="Слой_1" xmlns="http://www.w3.org/2000/svg" xmlns:xlink="http://www.w3.org/1999/xlink" viewBox="-129.3 287.4 21 21"><style>.st0{clip-path:url(#SVGID_2_);fill:#7f7f7f}.st1{clip-path:url(#SVGID_4_);fill:#FFF}</style><defs><path id="SVGID_1_" d="M-118.8 308.4c5.8 0 10.5-4.7 10.5-10.5s-4.7-10.5-10.5-10.5-10.5 4.7-10.5 10.5 4.7 10.5 10.5 10.5zm0-1c-5.2 0-9.5-4.3-9.5-9.5s4.3-9.5 9.5-9.5 9.5 4.3 9.5 9.5-4.3 9.5-9.5 9.5z"/></defs><clipPath id="SVGID_2_"><use xlink:href="#SVGID_1_" overflow="visible"/></clipPath><path class="st0" d="M-134.3 282.4h31v31h-31z"/><g><defs><path id="SVGID_3_" d="M-115.3 296h3.4v.7c-.3.3-.5.6-.7.9-.2.3-.4.6-.5 1-.2.3-.3.7-.4 1.1-.1.4-.2.8-.2 1.2h-.9c0-.4.1-.8.2-1.1.1-.4.2-.7.4-1.1.2-.4.4-.7.6-1 .2-.3.5-.6.7-.9h-2.5v-.8zm-.9-.2h.8l-2 5.2h-.8l2-5.2zm-2.1 3.9h-.6v1.2h-.8v-1.2h-2.1v-.7l2.1-2.9h.8v3.1h.6v.5zm-2.9-.6h1.5V297l-1.5 2.1zm-1 1.8h-3.3c0-.4.1-.8.3-1.1.2-.3.5-.6.8-.8.2-.1.3-.2.5-.3.2-.1.3-.2.5-.4l.4-.4c.1-.1.1-.3.1-.5v-.3c0-.1-.1-.2-.1-.3-.1-.1-.1-.2-.3-.2-.1-.1-.2-.1-.4-.1s-.3 0-.4.1c-.1.1-.2.1-.3.3-.1.1-.1.2-.1.4s0 .3-.1.5h-.8c0-.3 0-.5.1-.8l.3-.6c.1-.2.3-.3.5-.4s.4-.1.7-.1c.3 0 .5 0 .7.1.2.1.4.2.5.4.1.1.2.3.3.5.1.2.1.3.1.5s0 .4-.1.5c-.1.2-.1.3-.2.4s-.2.3-.3.4c-.1.1-.3.2-.4.3-.1.1-.3.2-.4.3-.1.1-.3.2-.4.3l-.3.3c-.1.1-.1.2-.2.3h2.4v.7z"/></defs><clipPath id="SVGID_4_"><use xlink:href="#SVGID_3_" overflow="visible"/></clipPath><path class="st1" d="M-130.6 290.8h23.6V306h-23.6z"/></g></svg>