<svg id="Слой_1" xmlns="http://www.w3.org/2000/svg" xmlns:xlink="http://www.w3.org/1999/xlink" viewBox="-128.9 287.9 20.2 20.2"><style>.st0{clip-path:url(#SVGID_2_);fill:gray}.st1{clip-path:url(#SVGID_4_);fill:#fefefe}.st2{clip-path:url(#SVGID_6_);fill:#fefefe}</style><defs><path id="SVGID_1_" d="M-108.7 298c0-5.6-4.5-10.1-10.1-10.1s-10.1 4.5-10.1 10.1 4.5 10.1 10.1 10.1 10.1-4.5 10.1-10.1zm-1 0c0 5-4.1 9.1-9.1 9.1s-9.1-4.1-9.1-9.1 4.1-9.1 9.1-9.1 9.1 4.1 9.1 9.1z"/></defs><clipPath id="SVGID_2_"><use xlink:href="#SVGID_1_" overflow="visible"/></clipPath><path class="st0" d="M-133.9 282.9h30.2v30.2h-30.2z"/><g><defs><path id="SVGID_3_" d="M-118.8 307.6c2.2 0 4.1-.7 5.7-1.9-.8-2.8-3.1-4.8-5.7-4.8s-4.9 2-5.7 4.8c1.5 1.2 3.5 1.9 5.7 1.9"/></defs><clipPath id="SVGID_4_"><use xlink:href="#SVGID_3_" overflow="visible"/></clipPath><path class="st1" d="M-129.6 295.9h21.5v16.7h-21.5z"/></g><g><defs><path id="SVGID_5_" d="M-115.6 296c0 1.8-1.4 3.2-3.2 3.2-1.8 0-3.2-1.4-3.2-3.2s1.4-3.2 3.2-3.2c1.7 0 3.2 1.4 3.2 3.2"/></defs><clipPath id="SVGID_6_"><use xlink:href="#SVGID_5_" overflow="visible"/></clipPath><path class="st2" d="M-127 287.8h16.4v16.4H-127z"/></g></svg>