<?xml version="1.0" encoding="utf-8"?>
<!-- Generator: Adobe Illustrator 19.0.0, SVG Export Plug-In . SVG Version: 6.00 Build 0)  -->
<svg version="1.1" id="Слой_1" xmlns:sketch="http://www.bohemiancoding.com/sketch/ns"
	 xmlns="http://www.w3.org/2000/svg" xmlns:xlink="http://www.w3.org/1999/xlink" x="0px" y="0px" viewBox="-128.9 287.8 20.2 20.2"
	 style="enable-background:new -128.9 287.8 20.2 20.2;" xml:space="preserve">
<style type="text/css">
	.st0{clip-path:url(#SVGID_2_);fill:#FEFEFE;}
	.st1{clip-path:url(#SVGID_4_);fill:#FEFEFE;}
	.st2{clip-path:url(#SVGID_6_);fill:#808080;}
</style>
<g>
	<defs>
		<path id="SVGID_1_" d="M-117.8,300.6l-0.7,0.3l0.9-4.8c0.1-0.5-0.4-1-1-0.7l-1.8,1c-0.3,0.2-0.4,0.6-0.3,0.9s0.6,0.4,0.9,0.3
			l0.4-0.2l-0.9,4.6c-0.1,0.4,0.3,0.8,0.7,0.8c0.1,0,0.2,0,0.3-0.1l1.9-0.8c0.4-0.1,0.5-0.5,0.4-0.9
			C-117.1,300.6-117.5,300.4-117.8,300.6"/>
	</defs>
	<clipPath id="SVGID_2_">
		<use xlink:href="#SVGID_1_"  style="overflow:visible;"/>
	</clipPath>
	<rect x="-125.7" y="290.3" class="st0" width="13.8" height="17.4"/>
</g>
<g>
	<defs>
		<path id="SVGID_3_" d="M-118.3,294.1c0.5,0,1-0.4,1-1c0-0.5-0.4-1-1-1c-0.5,0-1,0.4-1,1C-119.3,293.7-118.8,294.1-118.3,294.1"/>
	</defs>
	<clipPath id="SVGID_4_">
		<use xlink:href="#SVGID_3_"  style="overflow:visible;"/>
	</clipPath>
	<rect x="-124.3" y="287.1" class="st1" width="11.9" height="11.9"/>
</g>
<g>
	<defs>
		<path id="SVGID_5_" d="M-108.6,297.9c0-5.6-4.5-10.1-10.1-10.1c-5.6,0-10.1,4.5-10.1,10.1c0,5.6,4.5,10.1,10.1,10.1
			C-113.2,308.1-108.6,303.5-108.6,297.9z M-109.6,297.9c0,5-4.1,9.1-9.1,9.1c-5,0-9.1-4.1-9.1-9.1c0-5,4.1-9.1,9.1-9.1
			C-113.7,288.8-109.6,292.9-109.6,297.9z"/>
	</defs>
	<clipPath id="SVGID_6_">
		<use xlink:href="#SVGID_5_"  style="overflow:visible;"/>
	</clipPath>
	<rect x="-133.9" y="282.8" class="st2" width="30.2" height="30.2"/>
</g>
</svg>
