<?xml version="1.0" encoding="utf-8"?>
<!-- Generator: Adobe Illustrator 19.0.0, SVG Export Plug-In . SVG Version: 6.00 Build 0)  -->
<svg version="1.1" id="Слой_1" xmlns:sketch="http://www.bohemiancoding.com/sketch/ns"
	 xmlns="http://www.w3.org/2000/svg" xmlns:xlink="http://www.w3.org/1999/xlink" x="0px" y="0px" viewBox="-129.3 287.5 21 21"
	 style="enable-background:new -129.3 287.5 21 21;" xml:space="preserve">
<style type="text/css">
	.st0{display:none;stroke:#000000;stroke-miterlimit:10;}
	.st1{clip-path:url(#SVGID_2_);fill:#FFFFFF;}
	.st2{clip-path:url(#SVGID_4_);fill:#FFFFFF;}
	.st3{clip-path:url(#SVGID_6_);fill:#7F7F7F;}
</style>
<rect x="-132.5" y="285.2" class="st0" width="22px" height="28px"/>
<title>Page 1</title>
<desc>Created with Sketch.</desc>
<g>
	<defs>
		<path id="SVGID_1_" d="M-114.3,297L-114.3,297c-4.6,0-7.9,1.8-6.4,6.3v0C-116.2,304.9-114.4,301.6-114.3,297L-114.3,297z
			 M-119.2,301.3c0.3,0,0.5,0.3,0.5,0.6c0,0.3-0.3,0.5-0.6,0.5c-0.3,0-0.5-0.3-0.5-0.6S-119.5,301.3-119.2,301.3z"/>
	</defs>
	<clipPath id="SVGID_2_">
		<use xlink:href="#SVGID_1_"  style="overflow:visible;"/>
	</clipPath>
	<rect x="-126.1" y="292" class="st1" width="16.8" height="16.7"/>
</g>
<g>
	<defs>
		<path id="SVGID_3_" d="M-123.3,292.4L-123.3,292.4c3.1,0,5.3,1.2,4.3,4.2v0h0C-122.1,297.7-123.3,295.5-123.3,292.4L-123.3,292.4z
			 M-120.1,295.3c-0.2,0-0.4,0.2-0.3,0.4c0,0.2,0.2,0.4,0.4,0.3s0.4-0.2,0.3-0.4C-119.7,295.4-119.9,295.3-120.1,295.3z"/>
	</defs>
	<clipPath id="SVGID_4_">
		<use xlink:href="#SVGID_3_"  style="overflow:visible;"/>
	</clipPath>
	<rect x="-128.3" y="287.4" class="st2" width="14.5" height="14.5"/>
</g>
<g>
	<defs>
		<path id="SVGID_5_" d="M-108.3,298c0-5.8-4.7-10.5-10.5-10.5s-10.5,4.7-10.5,10.5c0,5.8,4.7,10.5,10.5,10.5
			S-108.3,303.8-108.3,298z M-109.3,298c0,5.2-4.3,9.5-9.5,9.5s-9.5-4.3-9.5-9.5s4.3-9.5,9.5-9.5S-109.3,292.8-109.3,298z"/>
	</defs>
	<clipPath id="SVGID_6_">
		<use xlink:href="#SVGID_5_"  style="overflow:visible;"/>
	</clipPath>
	<rect x="-134.3" y="282.5" class="st3" width="31" height="31"/>
</g>
</svg>
